<svg xmlns="http://www.w3.org/2000/svg" viewBox="0 0 586 549" xml:space="preserve"><path fill="currentColor" d="m372.787 426 .001 84.3h-86.057l-5.78-41.507c-1.957 2.364-3.583 4.502-5.384 6.481-26.939 29.61-60.945 42.24-100.318 40.129-61.006-3.273-104.107-34.293-131.158-88.096-19.132-38.05-22.839-78.975-19.426-120.801 2.499-30.617 10.818-59.497 26.683-86.03 43.762-73.184 124.695-86.055 180.545-64.43 17.578 6.807 32.429 17.548 44.79 31.758.505.581 1.044 1.134 2.127 2.307V31.32h93.975c0 131.35 0 262.765.002 394.68m-211.961-8.273c17.301 11.495 36.42 14.514 56.425 10.735 28.887-5.457 47.149-23.816 56.575-50.793 10.097-28.893 10.636-58.677 2.638-88.054-12.146-44.611-51.175-66.427-96.625-54.376-28.421 7.536-43.986 28.775-51.643 56.032-6.507 23.161-6.577 46.804-1.89 70.294 4.501 22.562 14.53 42.086 34.52 56.162M400.534 76V31.287h94.349v6.22c.01 117.287.015 234.573.045 351.86.002 9.092.94 18.058 6.446 25.722 7.396 10.294 18.4 13.538 30.225 13.708 9.579.138 19.178-1.127 29.217-1.8.025.196.278 1.244.28 2.293.039 25.156.027 50.312.106 75.469.008 2.372-.124 3.986-2.986 4.724-32.736 8.437-65.335 9.347-97.028-3.753-34.665-14.329-54.72-40.929-58.859-78.01-2.317-20.757-1.782-41.88-1.808-62.84-.115-93.96.03-187.922.078-281.883.001-2.165-.042-4.33-.065-6.995"/></svg>